<?xml version="1.0" encoding="UTF-8" standalone="no"?>
<svg width="20px" height="20px" viewBox="0 0 20 20" version="1.1" xmlns="http://www.w3.org/2000/svg" xmlns:xlink="http://www.w3.org/1999/xlink" xmlns:sketch="http://www.bohemiancoding.com/sketch/ns">
    <!-- Generator: Sketch 3.3.3 (12081) - http://www.bohemiancoding.com/sketch -->
    <title>icon_smiley_green</title>
    <desc>Created with Sketch.</desc>
    <defs></defs>
    <g id="design-5" stroke="none" stroke-width="1" fill="none" fill-rule="evenodd" sketch:type="MSPage">
        <g id="5-AblageList" sketch:type="MSArtboardGroup" transform="translate(-131.000000, -64.000000)" fill="#239F5C">
            <g id="tabbar" sketch:type="MSLayerGroup" transform="translate(0.000000, 49.000000)">
                <path d="M141.000624,15 C135.476755,15 131,19.4780031 131,25.000624 C131,30.5232449 135.476755,35.001248 141.000624,35.001248 C146.523245,35.001248 151,30.5232449 151,25.000624 C151,19.4780031 146.523245,15 141.000624,15 L141.000624,15 Z M143.713885,20.8171607 C144.525117,20.8171607 145.182839,21.476131 145.182839,22.2861154 C145.182839,23.0985959 144.525117,23.7575663 143.713885,23.7575663 C142.901404,23.7575663 142.243682,23.0985959 142.243682,22.2861154 C142.243682,21.476131 142.901404,20.8171607 143.713885,20.8171607 L143.713885,20.8171607 Z M138.46209,20.8171607 C139.273323,20.8171607 139.931045,21.476131 139.931045,22.2861154 C139.931045,23.0985959 139.273323,23.7575663 138.46209,23.7575663 C137.64961,23.7575663 136.991888,23.0985959 136.991888,22.2861154 C136.991888,21.476131 137.64961,20.8171607 138.46209,20.8171607 L138.46209,20.8171607 Z M145.534789,27.1909516 C144.775975,28.9482059 142.997504,30.0839314 141.006864,30.0839314 C138.971295,30.0839314 137.184087,28.9432137 136.447738,27.1697348 C136.265523,26.7304212 136.475195,26.2212168 136.915757,26.0377535 C137.368799,25.8555382 137.876755,26.0789392 138.050234,26.5095164 C138.514509,27.6265211 139.673947,28.349142 141.006864,28.349142 C142.303588,28.349142 143.46053,27.6215289 143.943526,26.50078 C144.129485,26.0702028 144.65741,25.8605304 145.086739,26.0514821 C145.296412,26.1413417 145.459906,26.3110764 145.546022,26.5269891 C145.632137,26.7416537 145.627145,26.9787832 145.534789,27.1909516 L145.534789,27.1909516 Z" id="icon_smiley_green" sketch:type="MSShapeGroup"></path>
            </g>
        </g>
    </g>
</svg>