<?xml version="1.0" encoding="UTF-8" standalone="no"?>
<svg width="32px" height="32px" viewBox="0 0 32 32" version="1.1" xmlns="http://www.w3.org/2000/svg" xmlns:xlink="http://www.w3.org/1999/xlink" xmlns:sketch="http://www.bohemiancoding.com/sketch/ns">
    <!-- Generator: Sketch 3.3.3 (12081) - http://www.bohemiancoding.com/sketch -->
    <title>icon_smiley_drop_bad</title>
    <desc>Created with Sketch.</desc>
    <defs></defs>
    <g id="design-5" stroke="none" stroke-width="1" fill="none" fill-rule="evenodd" sketch:type="MSPage">
        <g id="5-AblageBewerten" sketch:type="MSArtboardGroup" transform="translate(-171.000000, -565.000000)" stroke="#80818D">
            <g id="dropZone-bad" sketch:type="MSLayerGroup" transform="translate(172.000000, 566.000000)">
                <g id="icon_smiley_drop_bad" sketch:type="MSShapeGroup">
                    <circle id="Oval-5" stroke-width="2" cx="14.9974593" cy="14.9984887" r="14.6053073"></circle>
                    <path d="M21.9029039,21.4505007 C20.7484646,18.7808411 18.0448598,17.0562417 15.0156208,17.0562417 C11.9211949,17.0562417 9.20136849,18.7895527 8.08688251,21.4724299 C7.89612817,21.9314419 8.11391856,22.4589453 8.57353138,22.65 C8.68648198,22.6962617 8.80393858,22.7184913 8.91929239,22.7184913 C9.27256342,22.7184913 9.60781041,22.5100134 9.75140187,22.1633511 C10.5859146,20.1551736 12.6520694,18.8583445 15.0156208,18.8583445 C17.3254005,18.8583445 19.3798398,20.1560748 20.2485981,22.1651535 C20.4462617,22.6220628 20.976769,22.8323431 21.4333778,22.6343792 C21.8896862,22.4367156 22.1005674,21.9065087 21.9029039,21.4505007" id="Fill-1" stroke-width="0.5" fill="#80818D"></path>
                    <path d="M9.05537383,10.6868491 C9.05537383,9.6582777 9.88928571,8.82376502 10.9178571,8.82376502 C11.9461282,8.82376502 12.7803405,9.6579773 12.7803405,10.6868491 C12.7803405,11.715721 11.9461282,12.5499332 10.9178571,12.5499332 C9.88928571,12.5499332 9.05537383,11.715721 9.05537383,10.6868491" id="Fill-2" fill="#80818D"></path>
                    <path d="M17.5014352,10.6868491 C17.5014352,9.6582777 18.3362483,8.82376502 19.3648198,8.82376502 C20.3930908,8.82376502 21.2273031,9.6579773 21.2273031,10.6868491 C21.2273031,11.715721 20.3933912,12.5499332 19.3648198,12.5499332 C18.3362483,12.5499332 17.5014352,11.715721 17.5014352,10.6868491" id="Fill-3" fill="#80818D"></path>
                </g>
            </g>
        </g>
    </g>
</svg>