<?xml version="1.0" encoding="UTF-8" standalone="no"?>
<svg width="12px" height="12px" viewBox="0 0 12 12" version="1.1" xmlns="http://www.w3.org/2000/svg" xmlns:xlink="http://www.w3.org/1999/xlink" xmlns:sketch="http://www.bohemiancoding.com/sketch/ns">
    <!-- Generator: Sketch 3.3.3 (12081) - http://www.bohemiancoding.com/sketch -->
    <title>Shape Copy</title>
    <desc>Created with Sketch.</desc>
    <defs></defs>
    <g id="design-5" stroke="none" stroke-width="1" fill="none" fill-rule="evenodd" sketch:type="MSPage">
        <g id="5-ScanNegativFooter" sketch:type="MSArtboardGroup" transform="translate(-281.000000, -310.000000)" fill="#383950">
            <path d="M288.426687,315.999771 L292.705128,311.72133 C293.098964,311.327494 293.098964,310.688962 292.705128,310.295183 C292.311292,309.901347 291.672817,309.901347 291.278981,310.295183 L287.000484,314.57368 L282.721986,310.295127 C282.328151,309.901291 281.689675,309.901291 281.295839,310.295127 C280.90206,310.688962 280.90206,311.327494 281.295839,311.721274 L285.574337,315.999715 L281.295839,320.278212 C280.90206,320.672048 280.90206,321.31058 281.295839,321.704359 C281.689675,322.098195 282.328151,322.098195 282.721986,321.704359 L287.000484,317.425862 L291.278981,321.704359 C291.67276,322.098195 292.311292,322.098195 292.705128,321.704359 C293.098964,321.310524 293.098964,320.672048 292.705128,320.278212 L288.426687,315.999771 L288.426687,315.999771 Z" id="Shape-Copy" sketch:type="MSShapeGroup"></path>
        </g>
    </g>
</svg>