<?xml version="1.0" encoding="UTF-8" standalone="no"?>
<svg width="20px" height="20px" viewBox="0 0 20 20" version="1.1" xmlns="http://www.w3.org/2000/svg" xmlns:xlink="http://www.w3.org/1999/xlink" xmlns:sketch="http://www.bohemiancoding.com/sketch/ns">
    <!-- Generator: Sketch 3.3.3 (12081) - http://www.bohemiancoding.com/sketch -->
    <title>icon_smiley_orange_active</title>
    <desc>Created with Sketch.</desc>
    <defs></defs>
    <g id="design-5" stroke="none" stroke-width="1" fill="none" fill-rule="evenodd" sketch:type="MSPage">
        <g id="5-AblageList" sketch:type="MSArtboardGroup" transform="translate(-225.000000, -64.000000)">
            <g id="tabbar" sketch:type="MSLayerGroup" transform="translate(0.000000, 49.000000)">
                <g id="icon_smiley_orange_active" transform="translate(225.000000, 15.000000)" sketch:type="MSShapeGroup">
                    <circle id="Oval-159-Copy-2" fill="#FFFFFF" cx="9.5" cy="10.5" r="6.5"></circle>
                    <path d="M10.000624,0 C4.47675507,0 0,4.47800312 0,10.000624 C0,15.5232449 4.47675507,20.001248 10.000624,20.001248 C15.524493,20.001248 20,15.5232449 20,10.000624 C20,4.47800312 15.524493,0 10.000624,0 L10.000624,0 Z M12.7151326,5.81840874 C13.525117,5.81840874 14.1828393,6.47613105 14.1828393,7.28611544 C14.1828393,8.09984399 13.525117,8.7575663 12.7151326,8.7575663 C11.9014041,8.7575663 11.2436817,8.09984399 11.2436817,7.28611544 C11.2436817,6.47613105 11.9014041,5.81840874 12.7151326,5.81840874 L12.7151326,5.81840874 Z M7.46333853,5.81840874 C8.27332293,5.81840874 8.93104524,6.47613105 8.93104524,7.28611544 C8.93104524,8.09984399 8.27332293,8.7575663 7.46333853,8.7575663 C6.64960998,8.7575663 5.99188768,8.09984399 5.99188768,7.28611544 C5.99188768,6.47613105 6.64960998,5.81840874 7.46333853,5.81840874 L7.46333853,5.81840874 Z M13.7822153,13.7847114 L6.17784711,13.7847114 C5.66115445,13.7847114 5.24180967,13.3666147 5.24180967,12.8486739 C5.24180967,12.3319813 5.66115445,11.9126365 6.17784711,11.9126365 L13.7822153,11.9126365 C14.298908,11.9126365 14.7182527,12.3319813 14.7182527,12.8486739 C14.7182527,13.3666147 14.298908,13.7847114 13.7822153,13.7847114 L13.7822153,13.7847114 Z" id="icon_smiley_orange" fill="#F6A700"></path>
                </g>
            </g>
        </g>
    </g>
</svg>