<?xml version="1.0" encoding="UTF-8" standalone="no"?>
<svg width="62px" height="20px" viewBox="0 0 62 20" version="1.1" xmlns="http://www.w3.org/2000/svg" xmlns:xlink="http://www.w3.org/1999/xlink" xmlns:sketch="http://www.bohemiancoding.com/sketch/ns">
    <!-- Generator: Sketch 3.3.3 (12081) - http://www.bohemiancoding.com/sketch -->
    <title>icon_smiley_all</title>
    <desc>Created with Sketch.</desc>
    <defs></defs>
    <g id="design-5" stroke="none" stroke-width="1" fill="none" fill-rule="evenodd" sketch:type="MSPage">
        <g id="5-AblageListEdit" sketch:type="MSArtboardGroup" transform="translate(-16.000000, -64.000000)">
            <g id="tabbar" sketch:type="MSLayerGroup" transform="translate(0.000000, 49.000000)">
                <g id="icon_smiley_all" transform="translate(16.000000, 15.000000)" sketch:type="MSShapeGroup">
                    <g id="icon_smiley_orange_active-copy" transform="translate(0.000000, 2.000000)" fill="#F6A700">
                        <path d="M8.50053042,0 C3.80524181,0 0,3.80630265 0,8.50053042 C0,13.1947582 3.80524181,17.0010608 8.50053042,17.0010608 C13.195819,17.0010608 17,13.1947582 17,8.50053042 C17,3.80630265 13.195819,0 8.50053042,0 L8.50053042,0 Z M10.8078627,4.94564743 C11.4963495,4.94564743 12.0554134,5.50471139 12.0554134,6.19319813 C12.0554134,6.88486739 11.4963495,7.44393136 10.8078627,7.44393136 C10.1161934,7.44393136 9.55712949,6.88486739 9.55712949,6.19319813 C9.55712949,5.50471139 10.1161934,4.94564743 10.8078627,4.94564743 L10.8078627,4.94564743 Z M6.34383775,4.94564743 C7.03232449,4.94564743 7.59138846,5.50471139 7.59138846,6.19319813 C7.59138846,6.88486739 7.03232449,7.44393136 6.34383775,7.44393136 C5.65216849,7.44393136 5.09310452,6.88486739 5.09310452,6.19319813 C5.09310452,5.50471139 5.65216849,4.94564743 6.34383775,4.94564743 L6.34383775,4.94564743 Z M11.714883,11.7170047 L5.25117005,11.7170047 C4.81198128,11.7170047 4.45553822,11.3616225 4.45553822,10.9213729 C4.45553822,10.4821841 4.81198128,10.125741 5.25117005,10.125741 L11.714883,10.125741 C12.1540718,10.125741 12.5105148,10.4821841 12.5105148,10.9213729 C12.5105148,11.3616225 12.1540718,11.7170047 11.714883,11.7170047 L11.714883,11.7170047 Z" id="icon_smiley_orange"></path>
                    </g>
                    <g id="icon_smiley_red_active-copy" transform="translate(45.000000, 1.000000)" fill="#D13636">
                        <path d="M8.49946958,0.999375975 C3.80418097,0.999375975 0,4.80567863 0,9.4999064 C0,14.1941342 3.80418097,18.0004368 8.49946958,18.0004368 C13.1947582,18.0004368 17,14.1941342 17,9.4999064 C17,4.80567863 13.1947582,0.999375975 8.49946958,0.999375975 L8.49946958,0.999375975 Z M10.8068019,5.94396256 C11.4952886,5.94396256 12.0554134,6.50408736 12.0554134,7.1925741 C12.0554134,7.88318253 11.4952886,8.44330733 10.8068019,8.44330733 C10.1161934,8.44330733 9.55606864,7.88318253 9.55606864,7.1925741 C9.55606864,6.50408736 10.1161934,5.94396256 10.8068019,5.94396256 L10.8068019,5.94396256 Z M6.34277691,5.94396256 C7.03126365,5.94396256 7.59138846,6.50408736 7.59138846,7.1925741 C7.59138846,7.88318253 7.03126365,8.44330733 6.34277691,8.44330733 C5.65216849,8.44330733 5.09204368,7.88318253 5.09204368,7.1925741 C5.09204368,6.50408736 5.65216849,5.94396256 6.34277691,5.94396256 L6.34277691,5.94396256 Z M11.9673635,13.7666147 C11.5822777,13.9214977 11.1505148,13.7316069 11.0019969,13.3656162 C10.6084243,12.4161622 9.62184087,11.8019345 8.489922,11.8019345 C7.38664587,11.8019345 6.40430577,12.4214665 5.99269891,13.3730421 C5.83569423,13.7390328 5.38695788,13.9172543 5.02202808,13.7560062 C4.84380655,13.6785647 4.70377535,13.535351 4.63163807,13.3518253 C4.55843994,13.1682995 4.56162246,12.9667395 4.6401248,12.7874571 C5.28617785,11.2927301 6.79681747,10.3273635 8.489922,10.3273635 C10.220156,10.3273635 11.7392824,11.2969735 12.3651794,12.8044306 C12.5200624,13.178908 12.34078,13.6106708 11.9673635,13.7666147 L11.9673635,13.7666147 Z" id="icon_smiley_red"></path>
                    </g>
                    <g id="icon_smiley_green_active-copy" transform="translate(1.000000, 0.000000)">
                        <path d="M30.000624,0 C24.4767551,0 20,4.47800312 20,10.000624 C20,15.5232449 24.4767551,20.001248 30.000624,20.001248 C35.5232449,20.001248 40,15.5232449 40,10.000624 C40,4.47800312 35.5232449,0 30.000624,0 L30.000624,0 Z M32.7138846,5.81716069 C33.525117,5.81716069 34.1828393,6.47613105 34.1828393,7.28611544 C34.1828393,8.09859594 33.525117,8.7575663 32.7138846,8.7575663 C31.9014041,8.7575663 31.2436817,8.09859594 31.2436817,7.28611544 C31.2436817,6.47613105 31.9014041,5.81716069 32.7138846,5.81716069 L32.7138846,5.81716069 Z M27.4620905,5.81716069 C28.2733229,5.81716069 28.9310452,6.47613105 28.9310452,7.28611544 C28.9310452,8.09859594 28.2733229,8.7575663 27.4620905,8.7575663 C26.64961,8.7575663 25.9918877,8.09859594 25.9918877,7.28611544 C25.9918877,6.47613105 26.64961,5.81716069 27.4620905,5.81716069 L27.4620905,5.81716069 Z M34.5347894,12.1909516 C33.775975,13.9482059 31.9975039,15.0839314 30.0068643,15.0839314 C27.9712949,15.0839314 26.1840874,13.9432137 25.4477379,12.1697348 C25.2655226,11.7304212 25.475195,11.2212168 25.9157566,11.0377535 C26.3687988,10.8555382 26.8767551,11.0789392 27.050234,11.5095164 C27.5145086,12.6265211 28.673947,13.349142 30.0068643,13.349142 C31.3035881,13.349142 32.4605304,12.6215289 32.9435257,11.50078 C33.1294852,11.0702028 33.6574103,10.8605304 34.0867395,11.0514821 C34.2964119,11.1413417 34.4599064,11.3110764 34.5460218,11.5269891 C34.6321373,11.7416537 34.6271451,11.9787832 34.5347894,12.1909516 L34.5347894,12.1909516 Z" id="icon_smiley_green" fill="#239F5C"></path>
                        <g id="icon_smiley_all" transform="translate(0.000000, 3.000000)">
                            <circle id="orange" fill="#F6A700" cx="6.5" cy="6.5" r="6.5"></circle>
                            <circle id="red" fill="#D13636" cx="52.5" cy="7.5" r="6.5"></circle>
                            <circle id="green" fill="#239F5C" cx="30.5" cy="6.5" r="6.5"></circle>
                        </g>
                    </g>
                </g>
            </g>
        </g>
    </g>
</svg>