<?xml version="1.0" encoding="UTF-8" standalone="no"?>
<svg width="62px" height="20px" viewBox="0 0 62 20" version="1.1" xmlns="http://www.w3.org/2000/svg" xmlns:xlink="http://www.w3.org/1999/xlink" xmlns:sketch="http://www.bohemiancoding.com/sketch/ns">
    <!-- Generator: Sketch 3.3.3 (12081) - http://www.bohemiancoding.com/sketch -->
    <title>icon_smiley_all_active</title>
    <desc>Created with Sketch.</desc>
    <defs></defs>
    <g id="design-5" stroke="none" stroke-width="1" fill="none" fill-rule="evenodd" sketch:type="MSPage">
        <g id="5-AblageList" sketch:type="MSArtboardGroup" transform="translate(-16.000000, -64.000000)">
            <g id="tabbar" sketch:type="MSLayerGroup" transform="translate(0.000000, 49.000000)">
                <g id="icon_smiley_all_active" transform="translate(16.000000, 15.000000)" sketch:type="MSShapeGroup">
                    <g id="icon_smiley_orange_active-copy" transform="translate(0.000000, 2.000000)">
                        <circle id="Oval-159-Copy-2" fill="#FFFFFF" cx="7.5" cy="7.5" r="6.5"></circle>
                        <path d="M8.50053042,0 C3.80524181,0 0,3.80630265 0,8.50053042 C0,13.1947582 3.80524181,17.0010608 8.50053042,17.0010608 C13.195819,17.0010608 17,13.1947582 17,8.50053042 C17,3.80630265 13.195819,0 8.50053042,0 L8.50053042,0 Z M10.8078627,4.94564743 C11.4963495,4.94564743 12.0554134,5.50471139 12.0554134,6.19319813 C12.0554134,6.88486739 11.4963495,7.44393136 10.8078627,7.44393136 C10.1161934,7.44393136 9.55712949,6.88486739 9.55712949,6.19319813 C9.55712949,5.50471139 10.1161934,4.94564743 10.8078627,4.94564743 L10.8078627,4.94564743 Z M6.34383775,4.94564743 C7.03232449,4.94564743 7.59138846,5.50471139 7.59138846,6.19319813 C7.59138846,6.88486739 7.03232449,7.44393136 6.34383775,7.44393136 C5.65216849,7.44393136 5.09310452,6.88486739 5.09310452,6.19319813 C5.09310452,5.50471139 5.65216849,4.94564743 6.34383775,4.94564743 L6.34383775,4.94564743 Z M11.714883,11.7170047 L5.25117005,11.7170047 C4.81198128,11.7170047 4.45553822,11.3616225 4.45553822,10.9213729 C4.45553822,10.4821841 4.81198128,10.125741 5.25117005,10.125741 L11.714883,10.125741 C12.1540718,10.125741 12.5105148,10.4821841 12.5105148,10.9213729 C12.5105148,11.3616225 12.1540718,11.7170047 11.714883,11.7170047 L11.714883,11.7170047 Z" id="icon_smiley_orange" fill="#F6A700"></path>
                    </g>
                    <g id="icon_smiley_red_active-copy" transform="translate(45.000000, 1.000000)">
                        <circle id="Oval-159-Copy" fill="#FFFFFF" cx="8.5" cy="9.5" r="6.5"></circle>
                        <path d="M8.49946958,0.999375975 C3.80418097,0.999375975 0,4.80567863 0,9.4999064 C0,14.1941342 3.80418097,18.0004368 8.49946958,18.0004368 C13.1947582,18.0004368 17,14.1941342 17,9.4999064 C17,4.80567863 13.1947582,0.999375975 8.49946958,0.999375975 L8.49946958,0.999375975 Z M10.8068019,5.94396256 C11.4952886,5.94396256 12.0554134,6.50408736 12.0554134,7.1925741 C12.0554134,7.88318253 11.4952886,8.44330733 10.8068019,8.44330733 C10.1161934,8.44330733 9.55606864,7.88318253 9.55606864,7.1925741 C9.55606864,6.50408736 10.1161934,5.94396256 10.8068019,5.94396256 L10.8068019,5.94396256 Z M6.34277691,5.94396256 C7.03126365,5.94396256 7.59138846,6.50408736 7.59138846,7.1925741 C7.59138846,7.88318253 7.03126365,8.44330733 6.34277691,8.44330733 C5.65216849,8.44330733 5.09204368,7.88318253 5.09204368,7.1925741 C5.09204368,6.50408736 5.65216849,5.94396256 6.34277691,5.94396256 L6.34277691,5.94396256 Z M11.9673635,13.7666147 C11.5822777,13.9214977 11.1505148,13.7316069 11.0019969,13.3656162 C10.6084243,12.4161622 9.62184087,11.8019345 8.489922,11.8019345 C7.38664587,11.8019345 6.40430577,12.4214665 5.99269891,13.3730421 C5.83569423,13.7390328 5.38695788,13.9172543 5.02202808,13.7560062 C4.84380655,13.6785647 4.70377535,13.535351 4.63163807,13.3518253 C4.55843994,13.1682995 4.56162246,12.9667395 4.6401248,12.7874571 C5.28617785,11.2927301 6.79681747,10.3273635 8.489922,10.3273635 C10.220156,10.3273635 11.7392824,11.2969735 12.3651794,12.8044306 C12.5200624,13.178908 12.34078,13.6106708 11.9673635,13.7666147 L11.9673635,13.7666147 Z" id="icon_smiley_red" fill="#D13636"></path>
                    </g>
                    <g id="icon_smiley_green_active-copy" transform="translate(21.000000, 0.000000)">
                        <circle id="Oval-159" fill="#FFFFFF" cx="10.5" cy="9.5" r="6.5"></circle>
                        <path d="M10.000624,0 C4.47675507,0 0,4.47800312 0,10.000624 C0,15.5232449 4.47675507,20.001248 10.000624,20.001248 C15.5232449,20.001248 20,15.5232449 20,10.000624 C20,4.47800312 15.5232449,0 10.000624,0 L10.000624,0 Z M12.7138846,5.81716069 C13.525117,5.81716069 14.1828393,6.47613105 14.1828393,7.28611544 C14.1828393,8.09859594 13.525117,8.7575663 12.7138846,8.7575663 C11.9014041,8.7575663 11.2436817,8.09859594 11.2436817,7.28611544 C11.2436817,6.47613105 11.9014041,5.81716069 12.7138846,5.81716069 L12.7138846,5.81716069 Z M7.46209048,5.81716069 C8.27332293,5.81716069 8.93104524,6.47613105 8.93104524,7.28611544 C8.93104524,8.09859594 8.27332293,8.7575663 7.46209048,8.7575663 C6.64960998,8.7575663 5.99188768,8.09859594 5.99188768,7.28611544 C5.99188768,6.47613105 6.64960998,5.81716069 7.46209048,5.81716069 L7.46209048,5.81716069 Z M14.5347894,12.1909516 C13.775975,13.9482059 11.9975039,15.0839314 10.0068643,15.0839314 C7.97129485,15.0839314 6.18408736,13.9432137 5.44773791,12.1697348 C5.26552262,11.7304212 5.47519501,11.2212168 5.91575663,11.0377535 C6.36879875,10.8555382 6.87675507,11.0789392 7.05023401,11.5095164 C7.51450858,12.6265211 8.67394696,13.349142 10.0068643,13.349142 C11.3035881,13.349142 12.4605304,12.6215289 12.9435257,11.50078 C13.1294852,11.0702028 13.6574103,10.8605304 14.0867395,11.0514821 C14.2964119,11.1413417 14.4599064,11.3110764 14.5460218,11.5269891 C14.6321373,11.7416537 14.6271451,11.9787832 14.5347894,12.1909516 L14.5347894,12.1909516 Z" id="icon_smiley_green" fill="#239F5C"></path>
                    </g>
                </g>
            </g>
        </g>
    </g>
</svg>