<?xml version="1.0" encoding="UTF-8" standalone="no"?>
<svg width="20px" height="20px" viewBox="0 0 20 20" version="1.1" xmlns="http://www.w3.org/2000/svg" xmlns:xlink="http://www.w3.org/1999/xlink" xmlns:sketch="http://www.bohemiancoding.com/sketch/ns">
    <!-- Generator: Sketch 3.3.3 (12081) - http://www.bohemiancoding.com/sketch -->
    <title>icon_smiley_red_active</title>
    <desc>Created with Sketch.</desc>
    <defs></defs>
    <g id="design-5" stroke="none" stroke-width="1" fill="none" fill-rule="evenodd" sketch:type="MSPage">
        <g id="5-AblageList" sketch:type="MSArtboardGroup" transform="translate(-319.000000, -64.000000)">
            <g id="tabbar" sketch:type="MSLayerGroup" transform="translate(0.000000, 49.000000)">
                <g id="icon_smiley_red_active" transform="translate(319.000000, 14.000000)" sketch:type="MSShapeGroup">
                    <circle id="Oval-159-Copy" fill="#FFFFFF" cx="10.5" cy="11.5" r="6.5"></circle>
                    <path d="M9.99937598,0.999375975 C4.47550702,0.999375975 0,5.4773791 0,11 C0,16.5226209 4.47550702,21.000624 9.99937598,21.000624 C15.5232449,21.000624 20,16.5226209 20,11 C20,5.4773791 15.5232449,0.999375975 9.99937598,0.999375975 L9.99937598,0.999375975 Z M12.7138846,6.81653666 C13.523869,6.81653666 14.1828393,7.47550702 14.1828393,8.28549142 C14.1828393,9.09797192 13.523869,9.75694228 12.7138846,9.75694228 C11.9014041,9.75694228 11.2424337,9.09797192 11.2424337,8.28549142 C11.2424337,7.47550702 11.9014041,6.81653666 12.7138846,6.81653666 L12.7138846,6.81653666 Z M7.46209048,6.81653666 C8.27207488,6.81653666 8.93104524,7.47550702 8.93104524,8.28549142 C8.93104524,9.09797192 8.27207488,9.75694228 7.46209048,9.75694228 C6.64960998,9.75694228 5.99063963,9.09797192 5.99063963,8.28549142 C5.99063963,7.47550702 6.64960998,6.81653666 7.46209048,6.81653666 L7.46209048,6.81653666 Z M14.0792512,16.0196568 C13.626209,16.2018721 13.1182527,15.9784711 12.9435257,15.5478939 C12.4804992,14.4308892 11.3198128,13.7082683 9.98814353,13.7082683 C8.69017161,13.7082683 7.53447738,14.4371295 7.05023401,15.5566303 C6.86552262,15.9872075 6.3375975,16.1968799 5.90826833,16.0071763 C5.69859594,15.9160686 5.53385335,15.7475819 5.44898596,15.5316693 C5.36287051,15.3157566 5.36661466,15.0786271 5.45897036,14.8677067 C6.21903276,13.1092044 7.99625585,11.9734789 9.98814353,11.9734789 C12.0237129,11.9734789 13.8109204,13.1141966 14.5472699,14.8876755 C14.7294852,15.3282371 14.5185647,15.8361934 14.0792512,16.0196568 L14.0792512,16.0196568 Z" id="icon_smiley_red" fill="#D13636"></path>
                </g>
            </g>
        </g>
    </g>
</svg>