<?xml version="1.0" encoding="UTF-8" standalone="no"?>
<svg width="18px" height="16px" viewBox="0 0 18 16" version="1.1" xmlns="http://www.w3.org/2000/svg" xmlns:xlink="http://www.w3.org/1999/xlink" xmlns:sketch="http://www.bohemiancoding.com/sketch/ns">
    <!-- Generator: Sketch 3.3.3 (12081) - http://www.bohemiancoding.com/sketch -->
    <title>icon_library</title>
    <desc>Created with Sketch.</desc>
    <defs></defs>
    <g id="design-5" stroke="none" stroke-width="1" fill="none" fill-rule="evenodd" sketch:type="MSPage">
        <g id="5-ScanNegativ" sketch:type="MSArtboardGroup" transform="translate(-214.000000, -634.000000)" stroke="#171627" stroke-width="1.2" stroke-linejoin="round">
            <g id="navigation-scanner" sketch:type="MSLayerGroup" transform="translate(-4.000000, 617.000000)">
                <g id="text-ablage" transform="translate(218.000000, 18.000000)" sketch:type="MSShapeGroup">
                    <g id="icon_library" transform="translate(1.000000, 0.000000)">
                        <path d="M0.380915933,0.188761236 L3.824028,0.188761236 L8.13921483,7.15426294 L8.13921483,13.9509855 L0.381241657,13.9509855" id="Path-466" transform="translate(4.260065, 7.069873) scale(-1, 1) translate(-4.260065, -7.069873) "></path>
                        <path d="M8.19340415,7.15659594 L3.40151989,7.15659594 C3.40151989,7.15659594 3.37076666,10.0416736 0.380809887,10.0416736" id="Path-468" transform="translate(4.287107, 8.599135) scale(-1, 1) translate(-4.287107, -8.599135) "></path>
                        <path d="M7.87197982,0.188761236 L11.3150919,0.188761236 L15.6302787,7.15426294 L15.6302787,13.9509855 L7.87230554,13.9509855" id="Path-466"></path>
                        <path d="M15.6846801,7.15659594 L10.8927959,7.15659594 C10.8927959,7.15659594 10.8620426,10.0416736 7.87208587,10.0416736" id="Path-468"></path>
                    </g>
                </g>
            </g>
        </g>
    </g>
</svg>