<?xml version="1.0" encoding="UTF-8" standalone="no"?>
<svg width="62px" height="20px" viewBox="0 0 62 20" version="1.1" xmlns="http://www.w3.org/2000/svg" xmlns:xlink="http://www.w3.org/1999/xlink" xmlns:sketch="http://www.bohemiancoding.com/sketch/ns">
    <!-- Generator: Sketch 3.3.3 (12081) - http://www.bohemiancoding.com/sketch -->
    <title>icon_smiley_all_active</title>
    <desc>Created with Sketch.</desc>
    <defs></defs>
    <g id="design-5" stroke="none" stroke-width="1" fill="none" fill-rule="evenodd" sketch:type="MSPage">
        <g id="5-AblageList" sketch:type="MSArtboardGroup" transform="translate(-16.000000, -64.000000)">
            <g id="tabbar" sketch:type="MSLayerGroup" transform="translate(0.000000, 49.000000)">
                <g id="icon_smiley_all_active" transform="translate(10.000000, 8.000000)" sketch:type="MSShapeGroup">
                    <g id="icon_smiley_orange_active-copy" transform="translate(6.000000, 9.000000)" fill="#F6A700">
                        <path d="M8.50053042,0 C3.80524181,0 0,3.80630265 0,8.50053042 C0,13.1947582 3.80524181,17.0010608 8.50053042,17.0010608 C13.195819,17.0010608 17,13.1947582 17,8.50053042 C17,3.80630265 13.195819,0 8.50053042,0 L8.50053042,0 Z M10.8078627,4.94564743 C11.4963495,4.94564743 12.0554134,5.50471139 12.0554134,6.19319813 C12.0554134,6.88486739 11.4963495,7.44393136 10.8078627,7.44393136 C10.1161934,7.44393136 9.55712949,6.88486739 9.55712949,6.19319813 C9.55712949,5.50471139 10.1161934,4.94564743 10.8078627,4.94564743 L10.8078627,4.94564743 Z M6.34383775,4.94564743 C7.03232449,4.94564743 7.59138846,5.50471139 7.59138846,6.19319813 C7.59138846,6.88486739 7.03232449,7.44393136 6.34383775,7.44393136 C5.65216849,7.44393136 5.09310452,6.88486739 5.09310452,6.19319813 C5.09310452,5.50471139 5.65216849,4.94564743 6.34383775,4.94564743 L6.34383775,4.94564743 Z M11.714883,11.7170047 L5.25117005,11.7170047 C4.81198128,11.7170047 4.45553822,11.3616225 4.45553822,10.9213729 C4.45553822,10.4821841 4.81198128,10.125741 5.25117005,10.125741 L11.714883,10.125741 C12.1540718,10.125741 12.5105148,10.4821841 12.5105148,10.9213729 C12.5105148,11.3616225 12.1540718,11.7170047 11.714883,11.7170047 L11.714883,11.7170047 Z" id="icon_smiley_orange"></path>
                    </g>
                    <g id="icon_smiley_red_active-copy" transform="translate(51.000000, 9.000000)" fill="#D13636">
                        <path d="M8.49946958,-8.52651283e-14 C3.80418097,-8.52651283e-14 0,3.80630265 0,8.50053042 C0,13.1947582 3.80418097,17.0010608 8.49946958,17.0010608 C13.1947582,17.0010608 17,13.1947582 17,8.50053042 C17,3.80630265 13.1947582,-8.52651283e-14 8.49946958,-8.52651283e-14 L8.49946958,-8.52651283e-14 Z M10.8068019,4.94458658 C11.4952886,4.94458658 12.0554134,5.50471139 12.0554134,6.19319813 C12.0554134,6.88380655 11.4952886,7.44393136 10.8068019,7.44393136 C10.1161934,7.44393136 9.55606864,6.88380655 9.55606864,6.19319813 C9.55606864,5.50471139 10.1161934,4.94458658 10.8068019,4.94458658 L10.8068019,4.94458658 Z M6.34277691,4.94458658 C7.03126365,4.94458658 7.59138846,5.50471139 7.59138846,6.19319813 C7.59138846,6.88380655 7.03126365,7.44393136 6.34277691,7.44393136 C5.65216849,7.44393136 5.09204368,6.88380655 5.09204368,6.19319813 C5.09204368,5.50471139 5.65216849,4.94458658 6.34277691,4.94458658 L6.34277691,4.94458658 Z M11.9673635,12.7672387 C11.5822777,12.9221217 11.1505148,12.7322309 11.0019969,12.3662402 C10.6084243,11.4167863 9.62184087,10.8025585 8.489922,10.8025585 C7.38664587,10.8025585 6.40430577,11.4220905 5.99269891,12.3736661 C5.83569423,12.7396568 5.38695788,12.9178783 5.02202808,12.7566303 C4.84380655,12.6791888 4.70377535,12.535975 4.63163807,12.3524493 C4.55843994,12.1689236 4.56162246,11.9673635 4.6401248,11.7880811 C5.28617785,10.2933541 6.79681747,9.32798752 8.489922,9.32798752 C10.220156,9.32798752 11.7392824,10.2975975 12.3651794,11.8050546 C12.5200624,12.179532 12.34078,12.6112949 11.9673635,12.7672387 L11.9673635,12.7672387 Z" id="icon_smiley_red"></path>
                    </g>
                    <g id="icon_smiley_green_active-copy" transform="translate(27.000000, 7.000000)" fill="#239F5C">
                        <path d="M10.000624,0 C4.47675507,0 0,4.47800312 0,10.000624 C0,15.5232449 4.47675507,20.001248 10.000624,20.001248 C15.5232449,20.001248 20,15.5232449 20,10.000624 C20,4.47800312 15.5232449,0 10.000624,0 L10.000624,0 Z M12.7138846,5.81716069 C13.525117,5.81716069 14.1828393,6.47613105 14.1828393,7.28611544 C14.1828393,8.09859594 13.525117,8.7575663 12.7138846,8.7575663 C11.9014041,8.7575663 11.2436817,8.09859594 11.2436817,7.28611544 C11.2436817,6.47613105 11.9014041,5.81716069 12.7138846,5.81716069 L12.7138846,5.81716069 Z M7.46209048,5.81716069 C8.27332293,5.81716069 8.93104524,6.47613105 8.93104524,7.28611544 C8.93104524,8.09859594 8.27332293,8.7575663 7.46209048,8.7575663 C6.64960998,8.7575663 5.99188768,8.09859594 5.99188768,7.28611544 C5.99188768,6.47613105 6.64960998,5.81716069 7.46209048,5.81716069 L7.46209048,5.81716069 Z M14.5347894,12.1909516 C13.775975,13.9482059 11.9975039,15.0839314 10.0068643,15.0839314 C7.97129485,15.0839314 6.18408736,13.9432137 5.44773791,12.1697348 C5.26552262,11.7304212 5.47519501,11.2212168 5.91575663,11.0377535 C6.36879875,10.8555382 6.87675507,11.0789392 7.05023401,11.5095164 C7.51450858,12.6265211 8.67394696,13.349142 10.0068643,13.349142 C11.3035881,13.349142 12.4605304,12.6215289 12.9435257,11.50078 C13.1294852,11.0702028 13.6574103,10.8605304 14.0867395,11.0514821 C14.2964119,11.1413417 14.4599064,11.3110764 14.5460218,11.5269891 C14.6321373,11.7416537 14.6271451,11.9787832 14.5347894,12.1909516 L14.5347894,12.1909516 Z" id="icon_smiley_green"></path>
                    </g>
                </g>
            </g>
        </g>
    </g>
</svg>