<?xml version="1.0" encoding="UTF-8" standalone="no"?>
<svg width="20px" height="20px" viewBox="0 0 20 20" version="1.1" xmlns="http://www.w3.org/2000/svg" xmlns:xlink="http://www.w3.org/1999/xlink" xmlns:sketch="http://www.bohemiancoding.com/sketch/ns">
    <!-- Generator: Sketch 3.3.3 (12081) - http://www.bohemiancoding.com/sketch -->
    <title>icon_smiley_orange_active</title>
    <desc>Created with Sketch.</desc>
    <defs></defs>
    <g id="design-5" stroke="none" stroke-width="1" fill="none" fill-rule="evenodd" sketch:type="MSPage">
        <g id="5-AblageListEdit" sketch:type="MSArtboardGroup" transform="translate(-225.000000, -64.000000)" fill="#F6A700">
            <g id="tabbar" sketch:type="MSLayerGroup" transform="translate(0.000000, 49.000000)">
                <path d="M235.000624,15 C229.476755,15 225,19.4780031 225,25.000624 C225,30.5232449 229.476755,35.001248 235.000624,35.001248 C240.524493,35.001248 245,30.5232449 245,25.000624 C245,19.4780031 240.524493,15 235.000624,15 L235.000624,15 Z M237.715133,20.8184087 C238.525117,20.8184087 239.182839,21.476131 239.182839,22.2861154 C239.182839,23.099844 238.525117,23.7575663 237.715133,23.7575663 C236.901404,23.7575663 236.243682,23.099844 236.243682,22.2861154 C236.243682,21.476131 236.901404,20.8184087 237.715133,20.8184087 L237.715133,20.8184087 Z M232.463339,20.8184087 C233.273323,20.8184087 233.931045,21.476131 233.931045,22.2861154 C233.931045,23.099844 233.273323,23.7575663 232.463339,23.7575663 C231.64961,23.7575663 230.991888,23.099844 230.991888,22.2861154 C230.991888,21.476131 231.64961,20.8184087 232.463339,20.8184087 L232.463339,20.8184087 Z M238.782215,28.7847114 L231.177847,28.7847114 C230.661154,28.7847114 230.24181,28.3666147 230.24181,27.8486739 C230.24181,27.3319813 230.661154,26.9126365 231.177847,26.9126365 L238.782215,26.9126365 C239.298908,26.9126365 239.718253,27.3319813 239.718253,27.8486739 C239.718253,28.3666147 239.298908,28.7847114 238.782215,28.7847114 L238.782215,28.7847114 Z" id="icon_smiley_orange_active" sketch:type="MSShapeGroup"></path>
            </g>
        </g>
    </g>
</svg>