<?xml version="1.0" encoding="UTF-8" standalone="no"?>
<svg width="20px" height="20px" viewBox="0 0 20 20" version="1.1" xmlns="http://www.w3.org/2000/svg" xmlns:xlink="http://www.w3.org/1999/xlink" xmlns:sketch="http://www.bohemiancoding.com/sketch/ns">
    <!-- Generator: Sketch 3.3.3 (12081) - http://www.bohemiancoding.com/sketch -->
    <title>icon_smiley_green</title>
    <desc>Created with Sketch.</desc>
    <defs></defs>
    <g id="design-5" stroke="none" stroke-width="1" fill="none" fill-rule="evenodd" sketch:type="MSPage">
        <g id="5-AblageListEdit" sketch:type="MSArtboardGroup" transform="translate(-131.000000, -64.000000)" fill="#239F5C">
            <g id="tabbar" sketch:type="MSLayerGroup" transform="translate(0.000000, 49.000000)">
                <g id="icon_smiley_green" transform="translate(131.000000, 15.000000)" sketch:type="MSShapeGroup">
                    <path d="M10.000624,0 C4.47675507,0 0,4.47800312 0,10.000624 C0,15.5232449 4.47675507,20.001248 10.000624,20.001248 C15.5232449,20.001248 20,15.5232449 20,10.000624 C20,4.47800312 15.5232449,0 10.000624,0 L10.000624,0 Z M12.7138846,5.81716069 C13.525117,5.81716069 14.1828393,6.47613105 14.1828393,7.28611544 C14.1828393,8.09859594 13.525117,8.7575663 12.7138846,8.7575663 C11.9014041,8.7575663 11.2436817,8.09859594 11.2436817,7.28611544 C11.2436817,6.47613105 11.9014041,5.81716069 12.7138846,5.81716069 L12.7138846,5.81716069 Z M7.46209048,5.81716069 C8.27332293,5.81716069 8.93104524,6.47613105 8.93104524,7.28611544 C8.93104524,8.09859594 8.27332293,8.7575663 7.46209048,8.7575663 C6.64960998,8.7575663 5.99188768,8.09859594 5.99188768,7.28611544 C5.99188768,6.47613105 6.64960998,5.81716069 7.46209048,5.81716069 L7.46209048,5.81716069 Z M14.5347894,12.1909516 C13.775975,13.9482059 11.9975039,15.0839314 10.0068643,15.0839314 C7.97129485,15.0839314 6.18408736,13.9432137 5.44773791,12.1697348 C5.26552262,11.7304212 5.47519501,11.2212168 5.91575663,11.0377535 C6.36879875,10.8555382 6.87675507,11.0789392 7.05023401,11.5095164 C7.51450858,12.6265211 8.67394696,13.349142 10.0068643,13.349142 C11.3035881,13.349142 12.4605304,12.6215289 12.9435257,11.50078 C13.1294852,11.0702028 13.6574103,10.8605304 14.0867395,11.0514821 C14.2964119,11.1413417 14.4599064,11.3110764 14.5460218,11.5269891 C14.6321373,11.7416537 14.6271451,11.9787832 14.5347894,12.1909516 L14.5347894,12.1909516 Z"></path>
                    <ellipse id="Oval-202" cx="10" cy="9.5" rx="7" ry="7.5"></ellipse>
                </g>
            </g>
        </g>
    </g>
</svg>