<?xml version="1.0" encoding="UTF-8" standalone="no"?>
<svg width="15px" height="15px" viewBox="0 0 15 15" version="1.1" xmlns="http://www.w3.org/2000/svg" xmlns:xlink="http://www.w3.org/1999/xlink" xmlns:sketch="http://www.bohemiancoding.com/sketch/ns">
    <!-- Generator: Sketch 3.3.3 (12081) - http://www.bohemiancoding.com/sketch -->
    <title>Imported Layers</title>
    <desc>Created with Sketch.</desc>
    <defs></defs>
    <g id="design-5" stroke="none" stroke-width="1" fill="none" fill-rule="evenodd" sketch:type="MSPage">
        <g id="5-ScanNegativ" sketch:type="MSArtboardGroup" transform="translate(-295.000000, -450.000000)" fill="#F6A700">
            <g id="produkt-muesli-copy" sketch:type="MSLayerGroup" transform="translate(55.000000, 300.000000)">
                <g id="footer" transform="translate(0.000000, 140.000000)" sketch:type="MSShapeGroup">
                    <path d="M247.500468,10 C243.357566,10 240,13.3585023 240,17.500468 C240,21.6424337 243.357566,25.000936 247.500468,25.000936 C251.64337,25.000936 255,21.6424337 255,17.500468 C255,13.3585023 251.64337,10 247.500468,10 L247.500468,10 Z M249.536349,14.3638066 C250.143838,14.3638066 250.637129,14.8570983 250.637129,15.4645866 C250.637129,16.074883 250.143838,16.5681747 249.536349,16.5681747 C248.926053,16.5681747 248.432761,16.074883 248.432761,15.4645866 C248.432761,14.8570983 248.926053,14.3638066 249.536349,14.3638066 L249.536349,14.3638066 Z M245.597504,14.3638066 C246.204992,14.3638066 246.698284,14.8570983 246.698284,15.4645866 C246.698284,16.074883 246.204992,16.5681747 245.597504,16.5681747 C244.987207,16.5681747 244.493916,16.074883 244.493916,15.4645866 C244.493916,14.8570983 244.987207,14.3638066 245.597504,14.3638066 L245.597504,14.3638066 Z M250.336661,20.3385335 L244.633385,20.3385335 C244.245866,20.3385335 243.931357,20.024961 243.931357,19.6365055 C243.931357,19.248986 244.245866,18.9344774 244.633385,18.9344774 L250.336661,18.9344774 C250.724181,18.9344774 251.03869,19.248986 251.03869,19.6365055 C251.03869,20.024961 250.724181,20.3385335 250.336661,20.3385335 L250.336661,20.3385335 Z" id="Imported-Layers"></path>
                </g>
            </g>
        </g>
    </g>
</svg>