<?xml version="1.0" encoding="UTF-8" standalone="no"?>
<svg width="32px" height="32px" viewBox="0 0 32 32" version="1.1" xmlns="http://www.w3.org/2000/svg" xmlns:xlink="http://www.w3.org/1999/xlink" xmlns:sketch="http://www.bohemiancoding.com/sketch/ns">
    <!-- Generator: Sketch 3.3.3 (12081) - http://www.bohemiancoding.com/sketch -->
    <title>icon_smiley_drop_ok</title>
    <desc>Created with Sketch.</desc>
    <defs></defs>
    <g id="design-5" stroke="none" stroke-width="1" fill="none" fill-rule="evenodd" sketch:type="MSPage">
        <g id="5-AblageBewerten" sketch:type="MSArtboardGroup" transform="translate(-334.000000, -374.000000)" stroke="#80818D">
            <g id="dropZone-ok" sketch:type="MSLayerGroup" transform="translate(335.000000, 375.000000)">
                <g id="icon_smiley_drop_ok" sketch:type="MSShapeGroup">
                    <circle id="Oval-5" stroke-width="2" cx="14.9974593" cy="14.9984887" r="14.6053073"></circle>
                    <path d="M9.05537383,10.6868491 C9.05537383,9.6582777 9.88928571,8.82376502 10.9178571,8.82376502 C11.9461282,8.82376502 12.7803405,9.6579773 12.7803405,10.6868491 C12.7803405,11.715721 11.9461282,12.5499332 10.9178571,12.5499332 C9.88928571,12.5499332 9.05537383,11.715721 9.05537383,10.6868491" id="Fill-2" fill="#80818D"></path>
                    <path d="M17.5014352,10.6868491 C17.5014352,9.6582777 18.3362483,8.82376502 19.3648198,8.82376502 C20.3930908,8.82376502 21.2273031,9.6579773 21.2273031,10.6868491 C21.2273031,11.715721 20.3933912,12.5499332 19.3648198,12.5499332 C18.3362483,12.5499332 17.5014352,11.715721 17.5014352,10.6868491" id="Fill-3" fill="#80818D"></path>
                    <path d="M8.87590681,19.25 L21.060975,19.25" id="Path-112" stroke-width="2.5" stroke-linecap="round"></path>
                </g>
            </g>
        </g>
    </g>
</svg>