<?xml version="1.0" encoding="UTF-8" standalone="no"?>
<svg width="18px" height="17px" viewBox="0 0 18 17" version="1.1" xmlns="http://www.w3.org/2000/svg" xmlns:xlink="http://www.w3.org/1999/xlink" xmlns:sketch="http://www.bohemiancoding.com/sketch/ns">
    <!-- Generator: Sketch 3.3.3 (12081) - http://www.bohemiancoding.com/sketch -->
    <title>icon_library_white</title>
    <desc>Created with Sketch.</desc>
    <defs></defs>
    <g id="design-5" stroke="none" stroke-width="1" fill="none" fill-rule="evenodd" sketch:type="MSPage">
        <g id="5-ScanNegativFooter" sketch:type="MSArtboardGroup" transform="translate(-205.000000, -634.000000)" stroke-width="1.2" stroke="#FFFFFF" stroke-linejoin="round">
            <g id="footer" sketch:type="MSLayerGroup" transform="translate(123.000000, 617.000000)">
                <g id="button_ablage-+-button_scan" sketch:type="MSShapeGroup">
                    <g id="button_ablage" transform="translate(60.000000, 0.000000)">
                        <g id="icon_library_white" transform="translate(22.000000, 18.000000)">
                            <path d="M1.40812421,0.202244182 L5.09717286,0.202244182 L9.72058732,7.66528172 L9.72058732,14.9474845 L1.4084732,14.9474845" id="Path-466" transform="translate(5.564356, 7.574864) scale(-1, 1) translate(-5.564356, -7.574864) "></path>
                            <path d="M8.7786473,7.66778137 L3.6444856,7.66778137 C3.6444856,7.66778137 3.61153571,10.758936 0.408010593,10.758936" id="Path-468" transform="translate(4.593329, 9.213359) scale(-1, 1) translate(-4.593329, -9.213359) "></path>
                            <path d="M8.43426409,0.202244182 L12.1233127,0.202244182 L16.7467272,7.66528172 L16.7467272,14.9474845 L8.43461308,14.9474845" id="Path-466"></path>
                            <path d="M16.8050144,7.66778137 L11.6708527,7.66778137 C11.6708527,7.66778137 11.6379028,10.758936 8.43437771,10.758936" id="Path-468"></path>
                        </g>
                    </g>
                </g>
            </g>
        </g>
    </g>
</svg>