<?xml version="1.0" encoding="UTF-8" standalone="no"?>
<svg width="20px" height="20px" viewBox="0 0 20 20" version="1.1" xmlns="http://www.w3.org/2000/svg" xmlns:xlink="http://www.w3.org/1999/xlink" xmlns:sketch="http://www.bohemiancoding.com/sketch/ns">
    <!-- Generator: Sketch 3.3.3 (12081) - http://www.bohemiancoding.com/sketch -->
    <title>icon_smiley_red</title>
    <desc>Created with Sketch.</desc>
    <defs></defs>
    <g id="design-5" stroke="none" stroke-width="1" fill="none" fill-rule="evenodd" sketch:type="MSPage">
        <g id="5-AblageList" sketch:type="MSArtboardGroup" transform="translate(-319.000000, -64.000000)" fill="#D13636">
            <g id="tabbar" sketch:type="MSLayerGroup" transform="translate(0.000000, 49.000000)">
                <path d="M328.999376,14.999376 C323.475507,14.999376 319,19.4773791 319,25 C319,30.5226209 323.475507,35.000624 328.999376,35.000624 C334.523245,35.000624 339,30.5226209 339,25 C339,19.4773791 334.523245,14.999376 328.999376,14.999376 L328.999376,14.999376 Z M331.713885,20.8165367 C332.523869,20.8165367 333.182839,21.475507 333.182839,22.2854914 C333.182839,23.0979719 332.523869,23.7569423 331.713885,23.7569423 C330.901404,23.7569423 330.242434,23.0979719 330.242434,22.2854914 C330.242434,21.475507 330.901404,20.8165367 331.713885,20.8165367 L331.713885,20.8165367 Z M326.46209,20.8165367 C327.272075,20.8165367 327.931045,21.475507 327.931045,22.2854914 C327.931045,23.0979719 327.272075,23.7569423 326.46209,23.7569423 C325.64961,23.7569423 324.99064,23.0979719 324.99064,22.2854914 C324.99064,21.475507 325.64961,20.8165367 326.46209,20.8165367 L326.46209,20.8165367 Z M333.079251,30.0196568 C332.626209,30.2018721 332.118253,29.9784711 331.943526,29.5478939 C331.480499,28.4308892 330.319813,27.7082683 328.988144,27.7082683 C327.690172,27.7082683 326.534477,28.4371295 326.050234,29.5566303 C325.865523,29.9872075 325.337598,30.1968799 324.908268,30.0071763 C324.698596,29.9160686 324.533853,29.7475819 324.448986,29.5316693 C324.362871,29.3157566 324.366615,29.0786271 324.45897,28.8677067 C325.219033,27.1092044 326.996256,25.9734789 328.988144,25.9734789 C331.023713,25.9734789 332.81092,27.1141966 333.54727,28.8876755 C333.729485,29.3282371 333.518565,29.8361934 333.079251,30.0196568 L333.079251,30.0196568 Z" id="icon_smiley_red" sketch:type="MSShapeGroup"></path>
            </g>
        </g>
    </g>
</svg>